<svg xmlns="http://www.w3.org/2000/svg" viewBox="0 0 30 30"><defs><style>.cls-1{fill:none;stroke:#9575CD;stroke-miterlimit:10;}</style></defs><title>iconos</title><polyline class="cls-1" points="4 19 6 19 6 9 12 9 12 13 14 13 14 19 18 19 18 15 24 15 24 23 26 23"/><line class="cls-1" x1="8" y1="15" x2="10" y2="15"/><line class="cls-1" x1="8" y1="12" x2="10" y2="12"/><line class="cls-1" x1="8" y1="18" x2="10" y2="18"/><line class="cls-1" x1="20" y1="18" x2="22" y2="18"/><line class="cls-1" x1="20" y1="21" x2="22" y2="21"/><polyline class="cls-1" points="12 7 12 5 20 5 20 15"/><line class="cls-1" x1="16" y1="8" x2="18" y2="8"/><line class="cls-1" x1="16" y1="11" x2="18" y2="11"/></svg>